PathFileType	4	(X/Y/Z)	Walk1_0-155.trc
DataRate	CameraRate	NumFrames	NumMarkers	Units	OrigDataRate	OrigDataStartFrame	OrigNumFrames
30	30	5	22	m	30	77	155
Frame#	Time	Hip			RHip			RKnee			RAnkle			RBigToe			RSmallToe			RHeel			LHip			LKnee			LAnkle			LBigToe			LSmallToe			LHeel			Neck			Head			Nose			RShoulder			RElbow			RWrist			LShoulder			LElbow			LWrist		
		X1	Y1	Z1	X2	Y2	Z2	X3	Y3	Z3	X4	Y4	Z4	X5	Y5	Z5	X6	Y6	Z6	X7	Y7	Z7	X8	Y8	Z8	X9	Y9	Z9	X10	Y10	Z10	X11	Y11	Z11	X12	Y12	Z12	X13	Y13	Z13	X14	Y14	Z14	X15	Y15	Z15	X16	Y16	Z16	X17	Y17	Z17	X18	Y18	Z18	X19	Y19	Z19	X20	Y20	Z20	X21	Y21	Z21	X22	Y22	Z22
78	2.6	-0.6777892174332019	0.8879964674447794	0.3630601206995385	-0.6693409685528742	0.8596531838524943	0.46028284321211566	-0.6219253678631598	0.5017175573856811	0.41442597752344107	-0.6532402773919342	0.10032207473916434	0.380360832973034	-0.4241987675769754	0.055579149580913735	0.3618545727043687	-0.4877438367549449	0.02750345122341767	0.4376571199312279	-0.7018301575369948	0.03445840242876998	0.3663810089053713	-0.6750623832811273	0.8700605114794685	0.25749771752682254	-0.5877709898215097	0.514956435468351	0.2302540649710918	-0.9079666408489635	0.30029651087871084	0.2538483883813965	-0.885025449437504	0.07036475906710331	0.2772581596624834	-0.9202238428357549	0.10209298646564399	0.227705338171221	-0.9976530459073119	0.308766533637308	0.2679785567219031	-0.7292312004895959	1.5749752899802816	0.3498515845462316	-0.6818958759148346	1.8295421124322027	0.37483997359271365	-0.544585692904798	1.6854477839728375	0.3765852591435644	-0.7544938715973938	1.4491441618473484	0.5335265212949286	-0.6928738233483412	1.1307606316238086	0.5845105225924998	-0.5791434190577831	0.8937300333782728	0.6325881623667485	-0.761284751651694	1.4646783026010135	0.15159398566748072	-0.7419477397903557	1.1434552263923703	0.12362943358677224	-0.6912153856917724	0.8900994807653325	0.09770457631614676
79	2.6333333333333333	-0.6501317718108885	0.9010465771476294	0.36035478583937297	-0.6385197739721559	0.8833360230732203	0.461498957952825	-0.5918478450163872	0.49752298273168855	0.4383957364867973	-0.6393328555072613	0.12408602365627831	0.37965523613465496	-0.42289435286082894	0.04407598146897313	0.38541131325530587	-0.48626610737574694	0.027674663697625616	0.43944283573369736	-0.7064571090489233	0.031558317188594226	0.35469640982350703	-0.6454020057732751	0.8869598629470148	0.25527419912074756	-0.5123935521864298	0.5416440343515345	0.23111372351216058	-0.7984720824192002	0.2937863476390433	0.26019659992702887	-0.6200764382968053	0.0656306070792409	0.2664132487917959	-0.7575392507837333	0.12684358321754657	0.21658373020620475	-0.873256844867171	0.28067802199662045	0.2739642848626644	-0.687715153659922	1.5834219501116995	0.34963955979148775	-0.6167535401942978	1.8199674893922426	0.39275429890027463	-0.49964926170843227	1.6940887103753959	0.38445552271946165	-0.7184865283414404	1.4588023102371832	0.5299668766966512	-0.6394439294047106	1.143917873474812	0.5899846586999413	-0.5028228675308397	0.9147209389175598	0.6344338121704138	-0.7202807844437704	1.4718722481718454	0.1498271798202415	-0.7150988856861739	1.1557196814273776	0.09661703750739914	-0.6769122279370339	0.889678515896497	0.0952059524418249
80	2.6666666666666665	-0.6137747954525656	0.9108365316336283	0.3635057455544718	-0.609566523613338	0.8847312386382629	0.4661715024484265	-0.5887628262498659	0.5095381225571096	0.42957211651949306	-0.6521096561920434	0.11336077304583668	0.3893828489944274	-0.43848952268624214	0.03666459643869595	0.3807899863490263	-0.48758842454125834	0.02347002604702934	0.4417112116453087	-0.7081340208987824	0.04189945591580513	0.3589908122250158	-0.6024054394641478	0.890300498667004	0.2571133179454909	-0.4517805226152654	0.5541597295343544	0.22364407968164474	-0.6878852326709309	0.2791559531715524	0.26268616964986075	-0.5295487954280043	0.10489748531583505	0.25812122621558076	-0.5690322350494043	0.06541294454372808	0.22776972108903437	-0.7538400361712526	0.23516562234613506	0.2642061607531617	-0.6481868376769494	1.5876053946033544	0.35218487898667133	-0.6045451294210632	1.830040541806532	0.372387577318975	-0.4537584441124499	1.6979533069294548	0.3876117202905044	-0.6792113401042266	1.4671696895752226	0.531384159164854	-0.5583580356573677	1.1575730200815282	0.6065397969372143	-0.436239206323379	0.9301492091571404	0.633840342932974	-0.6821661800256236	1.4757142013228455	0.14934424150875023	-0.6692051976675254	1.1583773354639235	0.12013682645482551	-0.6592562017734945	0.8992759047223973	0.0976630872267641
81	2.7	-0.57966536510529	0.914548780353595	0.3673859198426328	-0.5835259475674988	0.8880036867331614	0.46872858464254225	-0.5811024329005775	0.5183722786044266	0.42583404886123444	-0.635467553742608	0.11698364287875367	0.3717319834569679	-0.4355493547418224	0.0391474907528824	0.38191855965670307	-0.48898298195313566	0.017285552556588642	0.4282234817419645	-0.7129618218348741	0.03497456607738552	0.35086777368356314	-0.562584607528434	0.900352034232104	0.2492025732032316	-0.33827749109192695	0.5784670885811248	0.26632169803281913	-0.5838500684794744	0.22855011173169873	0.25945513469449066	-0.4009154231223952	0.08054248659032552	0.2574743646028437	-0.38173015927686504	0.0830630262650125	0.21930534588371958	-0.6505813894402868	0.1706463394584359	0.2635724197016583	-0.6073418773599984	1.5955920485284563	0.3518949642615747	-0.5489880478877752	1.8404789696846617	0.36835024582850345	-0.4115940654395614	1.6790321166066873	0.347787938317052	-0.6388318894330703	1.4741723608594504	0.5351694251456323	-0.5085068535909397	1.1625080644664554	0.6128270058046181	-0.35900415053545853	0.9421659648188614	0.6290986361489169	-0.6430919072728798	1.4805624041015655	0.1481651796815767	-0.6665090882231833	1.1648263562400027	0.10940262499192213	-0.6402819036479774	0.9043606839827463	0.0952874013411692
82	2.7333333333333334	-0.5440351795621963	0.9126466940664949	0.37140584741436244	-0.5528890282505992	0.889525559720222	0.47324658032091804	-0.5715372689461717	0.5174677385958499	0.4247506685922022	-0.641109235120016	0.12071787628285927	0.3643938159758303	-0.46131118812533956	0.03809068613725714	0.41640525000613726	-0.482567637057225	0.029043958420778355	0.4419564856015404	-0.7100330453254803	0.032791069909639106	0.3625451005417883	-0.5222681597605027	0.8979089327556344	0.2568300365111386	-0.29233534186976295	0.5827050014826217	0.26654336933809936	-0.4645928796966359	0.19191717542238546	0.26067202913409504	-0.2644206099269234	0.07144379701143966	0.25084420168307026	-0.31101604232198765	0.08305419876117602	0.20920119281646257	-0.5180795940089303	0.1135853147554123	0.2756021977373956	-0.5687467077840197	1.5939275486429214	0.351686058028765	-0.5110970357191957	1.838538056146883	0.3668584809035678	-0.4142075812746878	1.689705138962984	0.36614727113979	-0.5941981895539342	1.4787739294133093	0.5374193268345974	-0.4575675528024688	1.1718715521262764	0.613029727229266	-0.29496832752891033	0.960417358830771	0.6244300300391189	-0.6068907738067495	1.4797217055331546	0.150949980676079	-0.6395249504655224	1.1651717013894856	0.11646565308202712	-0.6112834440349761	0.901596611518597	0.09349157615197343
